# xmcd CD database file generated by Grip 2.93
# 
# Track frame offsets:
#       150
#       5165
#       22885
#       42730
#       59765
#       77802
#       82867
#       102330
#       120300
#       136042
#       147922
#       152962
#       170390
#       187557
#       208125
#       223942
#       228972
#       246155
#       261355
#       281500
# 
# Disc length: 3946 seconds
# 
# Revision: 3
# Processed by: cddbd v1.4b41PL1 Copyright (c) Steve Scherf et al.
# Submitted via: Grip 2.93
# 
DISCID=190f6814
DTITLE=Roger Whittaker - Awakening
DYEAR=1900
DGENRE=
TTITLE0=I Awoke (Spring)
TTITLE1=Some Ladies
TTITLE2=It Rains in the Heat of the Night
TTITLE3=The Way to Love
TTITLE4=Simply Friends
TTITLE5=I Awoke (Summer)
TTITLE6=Shoot for the Moon
TTITLE7=Window of My Heart
TTITLE8=Heaven Can Wait
TTITLE9=Still
TTITLE10=I Awoke (Autumn)
TTITLE11=Love Is the Answer
TTITLE12=Sing Away Your Tears
TTITLE13=Tomorrow Comes
TTITLE14=You'll Cast a Mighty Long Shadow
TTITLE15=I Awoke (Winter)
TTITLE16=The Simple Man
TTITLE17=Moments
TTITLE18=War No More
TTITLE19=The Seasons
EXTD=
EXTT0=
EXTT1=
EXTT2=
EXTT3=
EXTT4=
EXTT5=
EXTT6=
EXTT7=
EXTT8=
EXTT9=
EXTT10=
EXTT11=
EXTT12=
EXTT13=
EXTT14=
EXTT15=
EXTT16=
EXTT17=
EXTT18=
EXTT19=
PLAYORDER=
